#N canvas 228 36 1106 894 10;
#X obj 440 760 output~;
#X obj 570 720 tgl 15 0 empty empty empty 17 7 0 10 #fcfcfc #000000
#000000 0 1;
#X obj 440 630 hsl 128 15 0 127 0 0 empty empty empty -2 -8 0 10 #fcfcfc
#000000 #000000 0 1;
#X obj 440 650 mtof~;
#X obj 440 680 +~;
#X obj 440 720 osc~;
#X obj 440 570 line;
#X floatatom 440 600 5 0 0 0 - - -, f 5;
#X obj 350 130 bng 15 250 50 0 empty empty empty 17 7 0 10 #fcfcfc
#000000 #000000;
#X msg 370 180 0 250;
#X msg 410 460 100 250;
#X msg 470 460 105 250;
#X msg 530 460 110 250;
#X msg 590 460 115 250;
#X msg 650 460 120 250;
#X msg 710 460 125 250;
#X msg 770 460 130 250;
#X floatatom 300 210 5 0 0 0 - - -, f 5;
#X obj 260 170 random 6;
#X obj 480 260 select 0 1 2 3 4 5 6;
#X obj 60 440 loadbang;
#X obj 220 130 bng 15 250 50 0 empty empty empty 17 7 0 10 #fcfcfc
#000000 #000000;
#X obj 200 80 threshold~ 0.6 250 0.1 250;
#X msg 60 470 connect localhost 12000;
#X obj 60 410 import mrpeach;
#X obj 90 580 udpsend;
#X floatatom 140 120 5 0 0 0 - - -, f 5;
#X obj 140 80 env~;
#X floatatom 420 120 5 0 0 0 - - -, f 5;
#X obj 410 80 env~;
#X obj 220 390 f;
#X obj 310 390 f;
#X obj 220 490 packOSC;
#X obj 240 420 pack 0 0;
#X msg 220 460 send /one/two \$1f \$2f;
#X obj 220 30 adc~ 1 2;
#X obj 630 570 udpreceive 5000;
#X obj 630 600 bng 15 250 50 0 empty empty empty 17 7 0 10 #fcfcfc
#000000 #000000;
#X obj 650 660 bang;
#X obj 630 700 bng 15 250 50 0 empty empty empty 17 7 0 10 #fcfcfc
#000000 #000000;
#X obj 640 630 delay 550;
#X msg 560 70 read -resize hit.wav effect;
#N canvas 0 0 450 300 (subpatch) 0;
#X array effect 135131 float 4 black #7032cd;
#X coords 0 1 135130 -1 200 140 1;
#X restore 650 120 graph;
#X obj 570 120 soundfiler;
#X obj 870 460 bng 15 250 50 0 empty empty empty 17 7 0 10 #fcfcfc
#000000 #000000;
#X obj 868 578 output~;
#X obj 1020 420 bng 15 250 50 0 empty empty empty 17 7 0 10 #fcfcfc
#000000 #000000;
#X obj 1040 480 bang;
#X obj 1020 520 bng 15 250 50 0 empty empty empty 17 7 0 10 #fcfcfc
#000000 #000000;
#X obj 980 540 tgl 15 0 empty empty empty 17 7 0 10 #fcfcfc #000000
#000000 0 47;
#X obj 1030 450 delay 750;
#X obj 860 510 tabplay~ effect;
#X obj 880 300 udpreceive 7000;
#X obj 560 40 loadbang;
#X connect 1 0 0 2;
#X connect 2 0 3 0;
#X connect 3 0 4 0;
#X connect 4 0 5 0;
#X connect 5 0 0 0;
#X connect 5 0 0 1;
#X connect 6 0 7 0;
#X connect 7 0 2 0;
#X connect 8 0 9 0;
#X connect 9 0 6 0;
#X connect 10 0 6 0;
#X connect 11 0 6 0;
#X connect 12 0 6 0;
#X connect 13 0 6 0;
#X connect 14 0 6 0;
#X connect 15 0 6 0;
#X connect 16 0 6 0;
#X connect 17 0 19 0;
#X connect 18 0 17 0;
#X connect 19 0 10 0;
#X connect 19 1 11 0;
#X connect 19 2 12 0;
#X connect 19 3 13 0;
#X connect 19 4 14 0;
#X connect 19 5 15 0;
#X connect 19 6 16 0;
#X connect 20 0 23 0;
#X connect 21 0 18 0;
#X connect 21 0 30 0;
#X connect 21 0 31 0;
#X connect 22 0 21 0;
#X connect 22 1 8 0;
#X connect 23 0 25 0;
#X connect 26 0 30 1;
#X connect 27 0 26 0;
#X connect 28 0 31 1;
#X connect 29 0 28 0;
#X connect 30 0 33 0;
#X connect 31 0 33 1;
#X connect 32 0 25 0;
#X connect 33 0 34 0;
#X connect 34 0 32 0;
#X connect 35 0 22 0;
#X connect 35 0 27 0;
#X connect 35 1 29 0;
#X connect 35 1 22 0;
#X connect 36 0 37 0;
#X connect 37 0 1 0;
#X connect 37 0 40 0;
#X connect 38 0 39 0;
#X connect 39 0 1 0;
#X connect 40 0 38 0;
#X connect 41 0 43 0;
#X connect 44 0 51 0;
#X connect 46 0 50 0;
#X connect 47 0 48 0;
#X connect 48 0 49 0;
#X connect 49 0 45 2;
#X connect 50 0 47 0;
#X connect 51 0 45 0;
#X connect 51 0 45 1;
#X connect 52 0 44 0;
#X connect 52 0 49 0;
#X connect 52 0 46 0;
#X connect 53 0 41 0;
